<?xml version="1.0" encoding="utf-8"?>
<!-- Generator: Adobe Illustrator 14.0.0, SVG Export Plug-In . SVG Version: 6.00 Build 43363)  -->
<!DOCTYPE svg PUBLIC "-//W3C//DTD SVG 1.1//EN" "http://www.w3.org/Graphics/SVG/1.1/DTD/svg11.dtd">
<svg version="1.1" id="Layer_1" xmlns="http://www.w3.org/2000/svg" xmlns:xlink="http://www.w3.org/1999/xlink" x="0px" y="0px"
	 width="612px" height="792px" viewBox="0 0 612 792" enable-background="new 0 0 612 792" xml:space="preserve">
<g>
	<path fill-rule="evenodd" clip-rule="evenodd" fill="#333333" d="M289.641,409.404c-0.209-1.192,0.667-2.356,1.2-3.601
		c0.505-1.178,1-2.466,1.44-3.601c1.102-2.259,2.121-4.6,3.121-6.96c5.066-4.855,10.082-9.759,15.122-14.641
		c1.44-0.363,2.557-1.426,4.08-1.44c2.662-0.025,4.596,2.052,5.28,4.32c-0.199,1.491-0.6,2.56-1.2,3.601
		c-0.528,0.916-1.529,1.599-1.92,2.64c-4.483,4.717-9.132,9.27-13.921,13.681C298.246,405.208,293.872,407.233,289.641,409.404z
		 M310.523,382.281c-0.308-0.013-0.333-0.308-0.721-0.24c-0.495,0.865-1.425,1.295-1.92,2.16c2.1,1.395,3.74,3.407,5.28,5.041
		c0.549,0.582,1.063,1.453,1.92,1.68c0.225-1.136,1.173-1.547,1.681-2.4C314.497,386.628,312.246,384.719,310.523,382.281z
		 M306.203,385.882c0.731,0.389,1.036,1.205,1.92,1.44c0.779,0.98,1.659,1.861,2.64,2.64c0.582,1.179,1.462,2.059,2.641,2.641
		c-0.102-0.821,0.719-0.721,0.96-1.2c-2.571-2.149-4.856-4.584-7.2-6.96C307.205,385.284,306.352,385.231,306.203,385.882z
		 M311.963,393.563c-0.459-1.861-1.891-2.75-2.88-4.081c-0.666-0.434-1.619-1.561-2.16-1.92c-0.476-0.316-0.79-0.554-1.2-0.72
		c-0.087-0.035-0.356-0.46-0.48,0C307.389,389.176,309.618,391.427,311.963,393.563z M303.322,388.762
		c1.183,0.818,1.938,2.063,3.121,2.88c0.109,1.011,1.135,1.105,1.44,1.92c0.809,0.392,1.024,1.376,2.16,1.44
		c0.27-0.45,0.931-0.51,1.2-0.96c-2.512-1.969-4.23-4.73-6.721-6.721C304.274,387.954,303.571,388.13,303.322,388.762z
		 M294.682,398.843c-1.008,2.272-2.371,4.19-3.12,6.721c0.639,0.562,0.903,1.497,1.92,1.681c2.107-1.254,4.347-2.374,6.721-3.36
		c0-0.801,0-1.601,0-2.4c-1.208,0.167-1.673-0.407-2.88-0.24c-0.365-0.595-0.059-1.861-0.48-2.4
		C296.122,398.843,295.402,398.843,294.682,398.843z"/>
</g>
<circle fill-rule="evenodd" clip-rule="evenodd" fill="none" stroke="#000000" stroke-width="0.001" cx="304.125" cy="394.625" r="22.125"/>
</svg>
